<svg width="20" height="22" viewBox="0 0 20 22" fill="none" xmlns="http://www.w3.org/2000/svg">
<path d="M2.27405 18.6825H14.8422L14.2419 16.739L15.6777 17.9712L16.9937 19.1505L19.3911 21.154V2.1815C19.3312 1.00217 18.3158 0 17.0571 0L2.27846 0.00264425C1.02068 0.00264425 0 1.00658 0 2.18591V16.5001C0 17.7438 1.01892 18.6825 2.27405 18.6825ZM11.5712 5.00908L11.5421 5.01966L11.5527 5.00908H11.5712ZM4.84514 6.1276C6.46077 4.95179 7.9583 5.0082 7.9583 5.0082L8.07905 5.12719C6.10204 5.59875 5.20564 6.48193 5.20564 6.48193C5.20564 6.48193 5.44538 6.3647 5.86406 6.18577C8.52681 5.13865 11.4346 5.21445 14.1264 6.5401C14.1264 6.5401 13.2283 5.71422 11.3729 5.18537L11.5368 5.02407C11.7933 5.02495 13.1507 5.07255 14.6033 6.13465C14.6033 6.13465 16.2286 8.91111 16.2286 12.3222C16.1749 12.257 15.2203 13.7906 12.7638 13.8435C12.7638 13.8435 12.3477 13.3728 12.0516 12.9621C13.4883 12.5496 14.026 11.7246 14.026 11.7246C13.5544 12.0216 13.1243 12.1979 12.7752 12.3742C12.2385 12.6104 11.7008 12.7268 11.164 12.8457C8.62201 13.2582 7.19499 12.5681 5.84643 12.0207L5.38545 11.7863C5.38545 11.7863 5.92223 12.6113 7.30165 13.0238C6.93938 13.4372 6.58065 13.907 6.58065 13.907C4.12502 13.8488 3.22951 12.3151 3.22951 12.3151C3.22951 8.89877 4.84514 6.1276 4.84514 6.1276Z" fill="#5C6F8C"/>
<path d="M11.7298 11.2566C12.3565 11.2566 12.8668 10.7277 12.8668 10.0755C12.8668 9.42765 12.3591 8.8988 11.7298 8.8988V8.90145C11.1058 8.90145 10.5945 9.42853 10.5928 10.0808C10.5928 10.7277 11.1031 11.2566 11.7298 11.2566Z" fill="#5C6F8C"/>
<path d="M7.65948 11.2566C8.28617 11.2566 8.79651 10.7277 8.79651 10.0755C8.79651 9.42765 8.2897 8.8988 7.66301 8.8988L7.65948 8.90145C7.0328 8.90145 6.52246 9.42853 6.52246 10.0808C6.52246 10.7277 7.0328 11.2566 7.65948 11.2566Z" fill="#5C6F8C"/>
</svg>
