<svg width="22" height="21" viewBox="0 0 22 21" fill="none" xmlns="http://www.w3.org/2000/svg">
<path d="M10.577 0C4.7332 0 0 4.65387 0 10.3936C0 14.9867 3.03031 18.8817 7.23201 20.2549C7.76086 20.3528 7.95477 20.031 7.95477 19.7552C7.95477 19.5084 7.94596 18.8544 7.94155 17.9879C4.99939 18.6146 4.37887 16.5935 4.37887 16.5935C3.89762 15.3939 3.20218 15.0731 3.20218 15.0731C2.24408 14.4288 3.27622 14.442 3.27622 14.442C4.33833 14.5143 4.89626 15.5129 4.89626 15.5129C5.83937 17.1021 7.37216 16.6429 7.97681 16.3776C8.072 15.7051 8.34436 15.2476 8.64668 14.9876C6.29771 14.7276 3.82887 13.8338 3.82887 9.85158C3.82887 8.7172 4.23873 7.78995 4.91741 7.06278C4.79842 6.80012 4.44145 5.7433 5.00996 4.31188C5.00996 4.31188 5.89579 4.03336 7.91863 5.37752C8.76479 5.14658 9.66383 5.032 10.5629 5.02671C11.4619 5.032 12.361 5.14658 13.2071 5.37752C15.2168 4.03336 16.1026 4.31188 16.1026 4.31188C16.6711 5.7433 16.3141 6.80012 16.2083 7.06278C16.8826 7.78995 17.2925 8.7172 17.2925 9.85158C17.2925 13.8444 14.8201 14.7232 12.4667 14.9788C12.8369 15.2908 13.1807 15.9281 13.1807 16.902C13.1807 18.2929 13.1675 19.4105 13.1675 19.7481C13.1675 20.0205 13.3526 20.3457 13.8946 20.2417C18.1263 18.8773 21.154 14.9797 21.154 10.3936C21.154 4.65387 16.4181 0 10.577 0Z" fill="#5C6F8C"/>
</svg>
