<svg width="22" height="22" viewBox="0 0 22 22" fill="none" xmlns="http://www.w3.org/2000/svg">
<path d="M15.316 0H5.83757C2.61874 0 0 2.61886 0 5.8377V15.3161C0 18.5351 2.61874 21.1538 5.83757 21.1538H15.316C18.5351 21.1538 21.1538 18.535 21.1538 15.3161V5.8377C21.154 2.61886 18.5351 0 15.316 0ZM19.2771 15.3161C19.2771 17.5002 17.5002 19.277 15.3161 19.277H5.83757C3.65364 19.2771 1.87687 17.5002 1.87687 15.3161V5.8377C1.87687 3.65377 3.65364 1.87687 5.83757 1.87687H15.316C17.5001 1.87687 19.277 3.65377 19.277 5.8377V15.3161H19.2771Z" fill="#5C6F8C"/>
<path d="M10.5769 5.12646C7.57129 5.12646 5.1261 7.57165 5.1261 10.5773C5.1261 13.5828 7.57129 16.0278 10.5769 16.0278C13.5825 16.0278 16.0277 13.5828 16.0277 10.5773C16.0277 7.57165 13.5825 5.12646 10.5769 5.12646ZM10.5769 14.1508C8.60632 14.1508 7.00297 12.5477 7.00297 10.5771C7.00297 8.60643 8.60619 7.00321 10.5769 7.00321C12.5476 7.00321 14.1508 8.60643 14.1508 10.5771C14.1508 12.5477 12.5475 14.1508 10.5769 14.1508Z" fill="#5C6F8C"/>
<path d="M16.2563 3.53491C15.8947 3.53491 15.5395 3.68131 15.2841 3.93781C15.0275 4.19307 14.88 4.54842 14.88 4.91128C14.88 5.27302 15.0276 5.62825 15.2841 5.88475C15.5394 6.14001 15.8947 6.28766 16.2563 6.28766C16.6192 6.28766 16.9733 6.14001 17.2298 5.88475C17.4863 5.62825 17.6327 5.27289 17.6327 4.91128C17.6327 4.54842 17.4863 4.19307 17.2298 3.93781C16.9746 3.68131 16.6192 3.53491 16.2563 3.53491Z" fill="#5C6F8C"/>
</svg>
