<svg width="22" height="22" viewBox="0 0 22 22" fill="none" xmlns="http://www.w3.org/2000/svg">
<path d="M10.577 21.154C16.4199 21.154 21.154 16.4199 21.154 10.577C21.154 4.73408 16.4199 0 10.577 0C4.73408 0 0 4.73408 0 10.577C0 16.4199 4.73408 21.154 10.577 21.154ZM4.83985 10.3478L15.0378 6.41582C15.5111 6.24483 15.9245 6.53129 15.7712 7.247L15.772 7.24612L14.0357 15.4265C13.907 16.0065 13.5623 16.1475 13.0802 15.8743L10.436 13.9255L9.16055 15.1542C9.01952 15.2952 8.90053 15.4142 8.62729 15.4142L8.81503 12.7232L13.7157 8.29588C13.929 8.10814 13.6681 8.00237 13.3869 8.18923L7.33073 12.0022L4.71998 11.1878C4.15323 11.008 4.14089 10.6211 4.83985 10.3478Z" fill="#5C6F8C"/>
</svg>
