<svg width="22" height="18" viewBox="0 0 22 18" fill="none" xmlns="http://www.w3.org/2000/svg">
<path d="M21.154 2.03475C20.3673 2.37982 19.5291 2.60855 18.6552 2.71961C19.5542 2.18283 20.2404 1.33931 20.563 0.322598C19.7248 0.82236 18.7993 1.17537 17.813 1.37236C17.017 0.524883 15.8827 0 14.6452 0C12.2442 0 10.3112 1.94881 10.3112 4.33789C10.3112 4.68164 10.3403 5.01217 10.4117 5.32683C6.80629 5.15099 3.61601 3.42298 1.47284 0.79063C1.09868 1.43979 0.879212 2.18283 0.879212 2.98271C0.879212 4.48464 1.65265 5.81602 2.80554 6.58682C2.10879 6.5736 1.42525 6.37131 0.846159 6.05268C0.846159 6.0659 0.846159 6.08309 0.846159 6.10028C0.846159 8.20774 2.34941 9.95823 4.3207 10.3615C3.96769 10.458 3.58295 10.5043 3.18367 10.5043C2.90603 10.5043 2.62574 10.4884 2.36263 10.4302C2.92454 12.1477 4.51902 13.4103 6.41494 13.4513C4.93945 14.6055 3.066 15.3009 1.03787 15.3009C0.682215 15.3009 0.341108 15.2851 0 15.2414C1.92104 16.4803 4.19774 17.1876 6.65292 17.1876C14.6333 17.1876 18.9963 10.577 18.9963 4.8469C18.9963 4.6552 18.9897 4.4701 18.9804 4.28632C19.8411 3.6755 20.5643 2.91264 21.154 2.03475Z" fill="#5C6F8C"/>
</svg>
