<svg width="22" height="19" viewBox="0 0 22 19" fill="none" xmlns="http://www.w3.org/2000/svg">
<path d="M7.93274 0C3.55122 0 0 2.96023 0 6.61061C0 8.71543 1.18727 10.5823 3.02898 11.7907L1.98318 13.8823L4.83236 12.662C5.44318 12.8788 6.0778 13.0573 6.75605 13.1406C6.6635 12.7373 6.61061 12.3235 6.61061 11.8991C6.61061 8.25401 10.1684 5.28849 14.5434 5.28849C14.944 5.28849 15.3353 5.32154 15.7214 5.36914C15.0233 2.31239 11.8039 0 7.93274 0ZM5.28849 4.95796C4.74113 4.95796 4.2969 4.51373 4.2969 3.96637C4.2969 3.41901 4.74113 2.97478 5.28849 2.97478C5.83585 2.97478 6.28008 3.41901 6.28008 3.96637C6.28008 4.51373 5.83585 4.95796 5.28849 4.95796ZM10.577 4.95796C10.0296 4.95796 9.58539 4.51373 9.58539 3.96637C9.58539 3.41901 10.0296 2.97478 10.577 2.97478C11.1243 2.97478 11.5686 3.41901 11.5686 3.96637C11.5686 4.51373 11.1243 4.95796 10.577 4.95796Z" fill="#5C6F8C"/>
<path d="M21.154 11.8991C21.154 8.97852 18.1937 6.6106 14.5434 6.6106C10.893 6.6106 7.93274 8.97852 7.93274 11.8991C7.93274 14.8197 10.893 17.1876 14.5434 17.1876C15.1436 17.1876 15.7148 17.103 16.2687 16.9827L19.8318 18.5097L18.5996 16.0466C20.1439 15.0788 21.154 13.5901 21.154 11.8991ZM12.5602 11.5686C12.0128 11.5686 11.5686 11.1243 11.5686 10.577C11.5686 10.0296 12.0128 9.58537 12.5602 9.58537C13.1075 9.58537 13.5518 10.0296 13.5518 10.577C13.5518 11.1243 13.1075 11.5686 12.5602 11.5686ZM16.5265 11.5686C15.9792 11.5686 15.5349 11.1243 15.5349 10.577C15.5349 10.0296 15.9792 9.58537 16.5265 9.58537C17.0739 9.58537 17.5181 10.0296 17.5181 10.577C17.5181 11.1243 17.0739 11.5686 16.5265 11.5686Z" fill="#5C6F8C"/>
</svg>
