<svg width="21" height="15" viewBox="0 0 21 15" fill="none" xmlns="http://www.w3.org/2000/svg">
<path d="M20.1999 2.25963C19.9623 1.37605 19.2656 0.679526 18.3822 0.441604C16.7682 0 10.3122 0 10.3122 0C10.3122 0 3.85643 0 2.24245 0.424861C1.37599 0.662531 0.662346 1.37617 0.424675 2.25963C-6.10352e-05 3.87347 -6.10352e-05 7.22037 -6.10352e-05 7.22037C-6.10352e-05 7.22037 -6.10352e-05 10.5841 0.424675 12.1811C0.662598 13.0646 1.35899 13.7611 2.24258 13.999C3.87342 14.4407 10.3124 14.4407 10.3124 14.4407C10.3124 14.4407 16.7682 14.4407 18.3822 14.0159C19.2658 13.7781 19.9623 13.0816 20.2002 12.1981C20.6248 10.5841 20.6248 7.23737 20.6248 7.23737C20.6248 7.23737 20.6418 3.87347 20.1999 2.25963ZM8.25674 10.3124V4.12839L13.6252 7.22037L8.25674 10.3124Z" fill="#5C6F8C"/>
</svg>
