<?xml version="1.0" standalone="no"?>
<!DOCTYPE svg PUBLIC "-//W3C//DTD SVG 20010904//EN"
 "http://www.w3.org/TR/2001/REC-SVG-20010904/DTD/svg10.dtd">
<svg version="1.0" xmlns="http://www.w3.org/2000/svg"
 width="240.000000pt" height="240.000000pt" viewBox="0 0 240.000000 240.000000"
 preserveAspectRatio="xMidYMid meet">
<metadata>
Created by potrace 1.11, written by Peter Selinger 2001-2013
</metadata>
<g transform="translate(0.000000,240.000000) scale(0.100000,-0.100000)"
fill="#000000" stroke="none">
<path d="M1128 2255 c-2 -2 -28 -5 -58 -8 -126 -12 -301 -67 -384 -120 -11 -6
-50 -31 -88 -54 -37 -24 -107 -82 -156 -130 -218 -218 -324 -485 -317 -801 2
-62 5 -116 9 -119 7 -7 61 33 158 118 23 21 27 33 32 104 12 190 96 387 225
529 105 115 274 217 427 257 105 27 272 33 379 13 276 -52 503 -225 634 -482
12 -24 27 -42 34 -40 118 34 167 53 167 65 0 23 -65 144 -118 218 -193 273
-502 438 -839 449 -56 2 -103 2 -105 1z"/>
<path d="M990 1564 c-30 -25 -64 -53 -75 -62 -22 -19 -160 -131 -505 -413
-129 -105 -257 -210 -283 -232 -26 -22 -63 -52 -82 -66 -19 -14 -34 -29 -35
-32 0 -3 174 82 386 189 212 106 388 191 391 188 4 -4 0 -34 -23 -176 -2 -14
-6 -35 -8 -47 -3 -13 -3 -23 0 -23 5 0 120 67 384 223 221 131 243 142 237
121 -6 -18 -30 -120 -61 -251 -8 -35 -12 -63 -8 -63 5 0 89 45 189 101 18 10
63 35 100 55 37 21 122 67 188 104 66 37 156 86 200 110 44 24 114 62 155 85
41 23 111 62 155 85 44 24 84 47 89 51 11 10 4 8 -589 -181 -104 -33 -193 -60
-197 -60 -6 0 -5 24 6 135 15 147 18 197 10 194 -14 -6 -107 -58 -124 -69 -18
-11 -93 -55 -176 -101 -33 -18 -75 -41 -94 -52 -19 -10 -39 -22 -45 -26 -5 -4
-45 -27 -89 -50 -75 -41 -78 -42 -73 -19 3 12 9 55 12 93 4 39 8 77 10 85 6
24 17 150 14 150 -2 0 -29 -21 -59 -46z"/>
<path d="M2176 1265 c-44 -25 -83 -45 -88 -45 -9 0 -9 2 -12 -61 -9 -141 -35
-245 -88 -358 -123 -259 -385 -451 -668 -489 -90 -12 -244 -4 -331 17 -149 37
-349 154 -437 256 -45 52 -111 147 -133 190 -19 37 -25 42 -43 35 -22 -9 -121
-60 -144 -74 -10 -6 -6 -21 19 -64 170 -305 467 -510 804 -557 54 -7 237 -8
272 -1 11 3 43 8 70 12 132 19 315 99 443 194 59 43 171 154 210 206 162 218
227 435 221 737 -1 26 -4 47 -9 47 -4 0 -43 -20 -86 -45z"/>
</g>
</svg>
